<svg xmlns="http://www.w3.org/2000/svg" viewBox="0 0 100 100">
  <defs>
    <radialGradient id="bg" cx="50%" cy="50%" r="50%">
      <stop offset="0%" style="stop-color:#1a1a3a"/>
      <stop offset="100%" style="stop-color:#0a0a1a"/>
    </radialGradient>
    <radialGradient id="star" cx="50%" cy="50%" r="50%">
      <stop offset="0%" style="stop-color:#ffffff"/>
      <stop offset="50%" style="stop-color:#aaccff"/>
      <stop offset="100%" style="stop-color:#6688cc;stop-opacity:0"/>
    </radialGradient>
  </defs>
  <!-- Background -->
  <circle cx="50" cy="50" r="50" fill="url(#bg)"/>
  <!-- Stars -->
  <circle cx="50" cy="50" r="8" fill="url(#star)"/>
  <circle cx="50" cy="50" r="3" fill="#ffffff"/>
  <circle cx="25" cy="30" r="4" fill="url(#star)"/>
  <circle cx="25" cy="30" r="1.5" fill="#ffffff"/>
  <circle cx="75" cy="25" r="3" fill="url(#star)"/>
  <circle cx="75" cy="25" r="1" fill="#ffffff"/>
  <circle cx="70" cy="70" r="5" fill="url(#star)"/>
  <circle cx="70" cy="70" r="2" fill="#ffffff"/>
  <circle cx="30" cy="75" r="3" fill="url(#star)"/>
  <circle cx="30" cy="75" r="1" fill="#ffffff"/>
  <circle cx="85" cy="50" r="2" fill="url(#star)"/>
  <circle cx="85" cy="50" r="0.8" fill="#ffffff"/>
  <circle cx="15" cy="55" r="2.5" fill="url(#star)"/>
  <circle cx="15" cy="55" r="1" fill="#ffffff"/>
  <circle cx="60" cy="20" r="1.5" fill="#aaccff"/>
  <circle cx="40" cy="85" r="1.5" fill="#aaccff"/>
  <circle cx="20" cy="15" r="1" fill="#8899cc"/>
  <circle cx="80" cy="85" r="1" fill="#8899cc"/>
</svg>
